# Blender 4.1.0
# www.blender.org
mtllib Parthenon .UPPER STEPS.mtl
o STEP.UPPER
v 32.432617 5.094359 -23.138321
v 32.432617 5.094358 -14.641335
v 32.432617 5.806590 -14.641335
v 32.432617 5.806590 -23.138321
v 32.432617 5.389629 -14.069558
v 32.432617 5.094358 -14.069558
v 32.432617 5.389629 -14.641335
v 32.432617 5.389629 -23.138323
v 9.135826 5.094357 -23.138313
v 9.135832 5.094357 -14.641328
v 9.135832 5.806588 -14.641328
v 9.135826 5.806588 -23.138313
v 9.135832 5.389627 -14.069550
v 9.135832 5.094357 -14.069550
v 9.135832 5.389627 -14.641328
v 9.135826 5.389627 -23.138315
vn -0.0000 1.0000 -0.0000
vn -0.0000 -0.0000 1.0000
vn 1.0000 -0.0000 -0.0000
vn -0.0000 -0.0000 -1.0000
vn -1.0000 -0.0000 -0.0000
vt 0.282575 0.023602
vt 0.087184 0.559320
vt 0.087184 0.023602
vt 0.305312 0.023602
vt 0.312102 0.559320
vt 0.305312 0.559320
vt 0.023602 0.963250
vt 0.030392 0.976398
vt 0.023602 0.976398
vt 0.039980 0.963250
vt 0.030392 0.767859
vt 0.039980 0.767859
vt 0.023602 0.767859
vt 0.030392 0.963250
vt 0.023602 0.232141
vt 0.030392 0.023602
vt 0.023602 0.036750
vt 0.023602 0.023602
vt 0.030392 0.232141
vt 0.039980 0.036750
vt 0.039980 0.232141
vt 0.030392 0.036750
vt 0.292164 0.023602
vt 0.282575 0.559320
vt 0.292164 0.559320
vt 0.312102 0.023602
s 0
usemtl Material.002
f 11/1/1 4/2/1 12/3/1
f 13/4/2 6/5/2 5/6/2
f 2/7/3 5/8/3 6/9/3
f 3/10/3 8/11/3 4/12/3
f 1/13/3 7/14/3 2/7/3
f 9/15/4 8/11/4 1/13/4
f 13/16/5 10/17/5 14/18/5
f 16/19/5 11/20/5 12/21/5
f 9/15/5 15/22/5 16/19/5
f 16/19/4 4/12/4 8/11/4
f 15/23/2 3/24/2 11/1/2
f 13/4/1 7/25/1 15/23/1
f 11/1/1 3/24/1 4/2/1
f 13/4/2 14/26/2 6/5/2
f 2/7/3 7/14/3 5/8/3
f 3/10/3 7/14/3 8/11/3
f 1/13/3 8/11/3 7/14/3
f 9/15/4 16/19/4 8/11/4
f 13/16/5 15/22/5 10/17/5
f 16/19/5 15/22/5 11/20/5
f 9/15/5 10/17/5 15/22/5
f 16/19/4 12/21/4 4/12/4
f 15/23/2 7/25/2 3/24/2
f 13/4/1 5/6/1 7/25/1
