# Blender 4.1.0
# www.blender.org
mtllib Parthenon .FRIEZE .mtl
o TECHO
v 37.191166 16.088633 -9.252074
v 37.191166 17.211752 -9.252074
v 37.191166 16.088633 -23.283817
v 37.191166 17.211752 -23.283817
v 20.662014 17.211752 -9.252074
v 20.662014 16.088633 -9.252074
v 20.662014 17.211752 -23.283817
v 20.662014 16.088633 -23.283817
v 37.304607 17.211752 -23.380119
v 37.304607 17.211752 -9.155771
v 20.662014 17.211752 -23.380119
v 20.662014 17.211752 -9.155771
v 37.304607 17.533276 -23.380119
v 37.304607 17.533276 -9.155771
v 20.662014 17.533276 -23.380119
v 20.662014 17.533276 -9.155771
v 37.113159 17.533276 -23.217598
v 37.113159 17.533276 -9.318293
v 20.662014 17.533276 -23.217598
v 20.662014 17.533276 -9.318293
v 37.113159 19.082432 -23.217598
v 37.113159 19.082432 -9.318293
v 20.662014 19.082432 -23.217598
v 20.662014 19.082432 -9.318293
v 4.132862 16.088633 -9.252074
v 4.132862 17.211752 -9.252074
v 4.132862 16.088633 -23.283817
v 4.132862 17.211752 -23.283817
v 4.019421 17.211752 -23.380119
v 4.019421 17.211752 -9.155771
v 4.019421 17.533276 -23.380119
v 4.019421 17.533276 -9.155771
v 4.210869 17.533276 -23.217598
v 4.210869 17.533276 -9.318293
v 4.210869 19.082432 -23.217598
v 4.210869 19.082432 -9.318293
vn 1.0000 -0.0000 -0.0000
vn -0.0000 -0.0000 -1.0000
vn -0.0000 -0.0000 1.0000
vn -0.0000 -1.0000 -0.0000
vn -0.0000 1.0000 -0.0000
vn -1.0000 -0.0000 -0.0000
vt 0.209472 0.943941
vt 0.228600 0.704971
vt 0.228600 0.943941
vt 0.398422 0.611713
vt 0.379295 0.330210
vt 0.398423 0.330210
vt 0.528239 0.330210
vt 0.547367 0.048706
vt 0.547367 0.330210
vt 0.046775 0.046774
vt 0.285745 0.328278
vt 0.046775 0.328278
vt 0.549007 0.330210
vt 0.400063 0.330210
vt 0.405538 0.613645
vt 0.400062 0.613645
vt 0.209472 0.704971
vt 0.207540 0.945581
vt 0.207540 0.703330
vt 0.078859 0.704936
vt 0.078623 0.953226
vt 0.078623 0.703331
vt 0.554483 0.330210
vt 0.557250 0.050035
vt 0.557250 0.330210
vt 0.202064 0.703330
vt 0.549007 0.046775
vt 0.072975 0.703331
vt 0.408306 0.330210
vt 0.434689 0.610385
vt 0.408306 0.610385
vt 0.072739 0.950504
vt 0.072728 0.717647
vt 0.405538 0.330210
vt 0.198804 0.942814
vt 0.198804 0.706098
vt 0.913898 0.420499
vt 0.677183 0.700674
vt 0.677183 0.420499
vt 0.172421 0.706098
vt 0.583634 0.330210
vt 0.046775 0.717648
vt 0.435474 0.947805
vt 0.416346 0.708835
vt 0.435473 0.708835
vt 0.398423 0.048707
vt 0.547367 0.611714
vt 0.046775 0.609782
vt 0.405539 0.046775
vt 0.400063 0.046775
vt 0.416346 0.947805
vt 0.414414 0.707195
vt 0.554483 0.330210
vt 0.557250 0.610385
vt 0.554483 0.613645
vt 0.408938 0.949445
vt 0.414414 0.949445
vt 0.549007 0.613645
vt 0.434690 0.050035
vt 0.408307 0.050035
vt 0.405678 0.946678
vt 0.408938 0.707195
vt 0.677183 0.046775
vt 0.913898 0.326950
vt 0.677183 0.326950
vt 0.379294 0.946678
vt 0.405678 0.709962
vt 0.583634 0.330210
vt 0.557250 0.330210
vt 0.379294 0.611713
vt 0.528239 0.048706
vt 0.285745 0.046774
vt 0.078872 0.938909
vt 0.554483 0.046775
vt 0.202064 0.945581
vt 0.072975 0.953226
vt 0.434690 0.330210
vt 0.913898 0.700674
vt 0.172421 0.942814
vt 0.583634 0.050035
vt 0.046786 0.950506
vt 0.379296 0.048707
vt 0.528239 0.611714
vt 0.285745 0.609782
vt 0.913898 0.046775
vt 0.379294 0.709962
vt 0.583634 0.610385
s 0
usemtl Material.003
f 4/1/1 1/2/1 3/3/1
f 4/4/2 8/5/2 7/6/2
f 6/7/3 2/8/3 5/9/3
f 3/10/4 6/11/4 8/12/4
f 2/8/4 12/13/4 5/9/4
f 11/14/2 13/15/2 9/16/2
f 4/4/4 11/14/4 9/16/4
f 2/17/4 9/18/4 10/19/4
f 7/20/5 12/21/5 11/22/5
f 16/23/5 18/24/5 20/25/5
f 9/18/1 14/26/1 10/19/1
f 10/27/3 16/23/3 12/13/3
f 12/21/6 15/28/6 11/22/6
f 19/29/2 21/30/2 17/31/2
f 15/28/6 20/32/6 19/33/6
f 15/34/5 17/31/5 13/15/5
f 14/26/5 17/35/5 18/36/5
f 24/37/5 21/38/5 23/39/5
f 17/35/1 22/40/1 18/36/1
f 18/24/3 24/41/3 20/25/3
f 20/32/6 23/42/6 19/33/6
f 25/43/6 28/44/6 27/45/6
f 8/5/2 28/46/2 7/6/2
f 26/47/3 6/7/3 5/9/3
f 6/11/4 27/48/4 8/12/4
f 12/13/4 26/47/4 5/9/4
f 31/49/2 11/14/2 29/50/2
f 28/46/4 11/14/4 7/6/4
f 26/51/4 29/52/4 28/44/4
f 16/53/5 34/54/5 32/55/5
f 32/56/6 29/52/6 30/57/6
f 16/53/3 30/58/3 12/13/3
f 35/59/2 19/29/2 33/60/2
f 33/60/5 15/34/5 31/49/5
f 34/61/5 31/62/5 32/56/5
f 35/63/5 24/64/5 23/65/5
f 36/66/6 33/67/6 34/61/6
f 24/68/3 34/54/3 20/69/3
f 4/1/1 2/17/1 1/2/1
f 4/4/2 3/70/2 8/5/2
f 6/7/3 1/71/3 2/8/3
f 3/10/4 1/72/4 6/11/4
f 2/8/4 10/27/4 12/13/4
f 11/14/2 15/34/2 13/15/2
f 4/4/4 7/6/4 11/14/4
f 2/17/4 4/1/4 9/18/4
f 7/20/6 5/73/6 12/21/6
f 16/23/5 14/74/5 18/24/5
f 9/18/1 13/75/1 14/26/1
f 10/27/3 14/74/3 16/23/3
f 12/21/6 16/76/6 15/28/6
f 19/29/2 23/77/2 21/30/2
f 15/28/1 16/76/1 20/32/1
f 15/34/5 19/29/5 17/31/5
f 14/26/5 13/75/5 17/35/5
f 24/37/5 22/78/5 21/38/5
f 17/35/1 21/79/1 22/40/1
f 18/24/3 22/80/3 24/41/3
f 20/32/6 24/81/6 23/42/6
f 25/43/6 26/51/6 28/44/6
f 8/5/2 27/82/2 28/46/2
f 26/47/3 25/83/3 6/7/3
f 6/11/4 25/84/4 27/48/4
f 12/13/4 30/58/4 26/47/4
f 31/49/2 15/34/2 11/14/2
f 28/46/4 29/50/4 11/14/4
f 26/51/4 30/57/4 29/52/4
f 16/53/5 20/69/5 34/54/5
f 32/56/6 31/62/6 29/52/6
f 16/53/3 32/55/3 30/58/3
f 35/59/2 23/77/2 19/29/2
f 33/60/5 19/29/5 15/34/5
f 34/61/5 33/67/5 31/62/5
f 35/63/5 36/85/5 24/64/5
f 36/66/6 35/86/6 33/67/6
f 24/68/3 36/87/3 34/54/3
o TRIANGLE
v 20.662014 24.203415 -9.138704
v 20.662014 24.203415 -14.320105
v 38.453327 19.994387 -9.138704
v 38.453327 19.994387 -14.320105
v 38.453327 19.643635 -14.320105
v 38.453327 19.643635 -9.138704
v 20.662014 19.889162 -14.320105
v 20.662014 19.889162 -9.138704
v 20.662014 19.889162 -9.318293
v 20.662014 19.889162 -14.140516
v 37.814663 19.643635 -9.318293
v 37.814663 19.643635 -14.140516
v 37.814663 19.082432 -14.140516
v 37.814663 19.082432 -9.318293
v 20.662014 19.327959 -14.140516
v 20.662014 19.327959 -9.318293
v 36.886566 19.754351 -9.138704
v 35.716599 20.051962 -9.138704
v 20.662014 20.047256 -9.138704
v 20.662014 23.707878 -9.138704
v 36.886566 19.754351 -9.700125
v 35.716599 20.051962 -9.700125
v 20.662014 20.047256 -9.700125
v 20.662014 23.707878 -9.700125
v 2.870701 19.994387 -9.138704
v 2.870701 19.994387 -14.320105
v 2.870701 19.643635 -14.320105
v 2.870701 19.643635 -9.138704
v 3.509365 19.643635 -9.318293
v 3.509365 19.643635 -14.140516
v 3.509365 19.082432 -14.140516
v 3.509365 19.082432 -9.318293
v 4.437464 19.754351 -9.138704
v 5.607428 20.051962 -9.138704
v 4.437464 19.754351 -9.700125
v 5.607428 20.051962 -9.700125
vn 1.0000 -0.0000 -0.0000
vn -0.0000 -0.0000 -1.0000
vn -0.0000 -0.0000 1.0000
vn 0.2302 0.9731 -0.0000
vn -0.0000 -1.0000 -0.0000
vn -1.0000 -0.0000 -0.0000
vn -0.0138 -0.9987 -0.0490
vn -0.0000 1.0000 -0.0000
vn -0.0143 -0.9999 -0.0000
vn -0.2360 -0.9718 -0.0000
vn 0.0181 0.9998 -0.0000
vn -0.2465 -0.9691 -0.0000
vn -0.2302 0.9731 -0.0000
vn 0.0143 -0.9999 -0.0000
vn 0.2360 -0.9718 -0.0000
vn -0.0181 0.9998 -0.0000
vn 0.2465 -0.9691 -0.0000
vn -0.0138 -0.9987 0.0490
vn 0.0138 -0.9987 -0.0490
vn 0.0138 -0.9987 0.0490
vt 0.098380 0.648836
vt 0.093535 0.577268
vt 0.098380 0.577268
vt 0.289500 0.274337
vt 0.290953 0.520079
vt 0.286109 0.520079
vt 0.464417 0.520079
vt 0.467732 0.498439
vt 0.469261 0.520079
vt 0.028594 0.274337
vt 0.100163 0.028594
vt 0.100163 0.274337
vt 0.226439 0.511258
vt 0.157352 0.520079
vt 0.159832 0.511258
vt 0.534202 0.626232
vt 0.526451 0.559625
vt 0.534202 0.559625
vt 0.599143 0.626232
vt 0.591391 0.559625
vt 0.599143 0.559625
vt 0.228920 0.274337
vt 0.228920 0.520079
vt 0.226439 0.274337
vt 0.157352 0.274337
vt 0.593057 0.502436
vt 0.526450 0.265515
vt 0.593057 0.265515
vt 0.765435 0.265515
vt 0.769795 0.028594
vt 0.773186 0.265515
vt 0.833767 0.265515
vt 0.838127 0.502436
vt 0.830375 0.502436
vt 0.159832 0.274337
vt 0.898707 0.252696
vt 0.906462 0.460638
vt 0.898707 0.460638
vt 0.406280 0.274337
vt 0.463621 0.482278
vt 0.465870 0.274337
vt 0.463686 0.274337
vt 0.654292 0.252696
vt 0.654357 0.044755
vt 0.704854 0.252696
vt 0.963651 0.028594
vt 0.971406 0.252696
vt 0.963651 0.252696
vt 0.906462 0.476798
vt 0.898707 0.476798
vt 0.155569 0.648836
vt 0.160414 0.577268
vt 0.160414 0.648836
vt 0.290953 0.028594
vt 0.286109 0.028594
vt 0.467732 0.050235
vt 0.464417 0.028594
vt 0.469261 0.028594
vt 0.100163 0.520079
vt 0.159832 0.037416
vt 0.228920 0.028594
vt 0.226439 0.037416
vt 0.028594 0.643875
vt 0.036346 0.577268
vt 0.036346 0.643875
vt 0.593057 0.028594
vt 0.769795 0.502436
vt 0.762043 0.502436
vt 0.838127 0.028594
vt 0.830375 0.028594
vt 0.906462 0.044755
vt 0.898707 0.044755
vt 0.463621 0.066396
vt 0.654357 0.460638
vt 0.650246 0.476798
vt 0.963651 0.476798
vt 0.906462 0.028594
vt 0.898707 0.028594
vt 0.093535 0.648836
vt 0.349091 0.274337
vt 0.028595 0.028594
vt 0.526451 0.626232
vt 0.591391 0.626232
vt 0.526450 0.502436
vt 0.762043 0.028594
vt 0.841518 0.265515
vt 0.906462 0.252696
vt 0.413124 0.274337
vt 0.650246 0.028594
vt 0.971406 0.028594
vt 0.155569 0.577268
vt 0.028594 0.520079
vt 0.157352 0.028594
vt 0.028594 0.577268
vt 0.526450 0.028594
vt 0.971406 0.476798
s 0
usemtl Material.003
f 41/88/7 39/89/7 42/90/7
f 43/91/8 40/92/8 41/93/8
f 39/94/9 53/95/9 42/96/9
f 37/97/10 40/98/10 38/99/10
f 48/100/11 42/101/11 47/102/11
f 49/103/7 47/104/7 50/105/7
f 52/106/12 46/107/12 51/108/12
f 48/100/13 43/109/13 41/110/13
f 46/111/14 44/112/14 43/109/14
f 49/113/15 52/114/15 51/115/15
f 52/116/9 47/117/9 45/118/9
f 51/119/8 48/120/8 49/121/8
f 47/102/15 44/112/15 45/122/15
f 56/123/16 58/124/16 54/125/16
f 37/126/9 54/127/9 39/94/9
f 44/128/9 53/95/9 55/129/9
f 59/130/9 58/131/9 60/132/9
f 53/133/17 59/134/17 55/135/17
f 54/125/18 57/136/18 53/137/18
f 61/138/12 63/139/12 64/140/12
f 62/141/8 43/91/8 63/142/8
f 69/143/9 61/144/9 64/145/9
f 62/146/19 37/97/19 38/99/19
f 65/147/11 63/148/11 66/149/11
f 65/150/12 67/151/12 68/152/12
f 66/149/20 43/109/20 46/111/20
f 52/114/20 67/153/20 51/115/20
f 52/116/9 65/154/9 68/155/9
f 66/156/8 51/119/8 67/157/8
f 44/112/20 65/147/20 45/122/20
f 72/158/21 56/123/21 70/159/21
f 70/160/9 37/126/9 61/144/9
f 44/128/9 69/143/9 64/145/9
f 59/130/9 72/161/9 71/162/9
f 59/134/22 69/163/22 55/135/22
f 71/164/23 70/159/23 69/165/23
f 41/88/7 40/166/7 39/89/7
f 43/91/8 38/167/8 40/92/8
f 39/94/9 54/127/9 53/95/9
f 37/97/10 39/168/10 40/98/10
f 48/100/11 41/110/11 42/101/11
f 49/103/7 48/169/7 47/104/7
f 52/106/12 45/170/12 46/107/12
f 48/100/15 46/111/15 43/109/15
f 46/111/7 45/122/7 44/112/7
f 49/113/15 50/171/15 52/114/15
f 52/116/9 50/172/9 47/117/9
f 51/119/8 46/173/8 48/120/8
f 47/102/24 42/101/24 44/112/24
f 56/123/16 60/174/16 58/124/16
f 37/126/9 56/175/9 54/127/9
f 44/128/9 42/96/9 53/95/9
f 59/130/9 57/176/9 58/131/9
f 53/133/17 57/177/17 59/134/17
f 54/125/18 58/124/18 57/136/18
f 61/138/12 62/178/12 63/139/12
f 62/141/8 38/167/8 43/91/8
f 69/143/9 70/160/9 61/144/9
f 62/146/19 61/179/19 37/97/19
f 65/147/11 64/180/11 63/148/11
f 65/150/12 66/181/12 67/151/12
f 66/149/25 63/148/25 43/109/25
f 52/114/20 68/182/20 67/153/20
f 52/116/9 45/118/9 65/154/9
f 66/156/8 46/173/8 51/119/8
f 44/112/26 64/180/26 65/147/26
f 72/158/21 60/174/21 56/123/21
f 70/160/9 56/175/9 37/126/9
f 44/128/9 55/129/9 69/143/9
f 59/130/9 60/132/9 72/161/9
f 59/134/22 71/183/22 69/163/22
f 71/164/23 72/158/23 70/159/23
