# Blender 4.1.0
# www.blender.org
mtllib PIECE_LP 2.mtl
o PIECE_2
v 11.751961 5.142412 -9.810145
v 11.751342 5.188316 -9.802012
v 11.785870 5.141136 -9.801512
v 11.780240 5.186081 -9.793488
v 11.811059 5.140312 -9.777085
v 11.801526 5.186809 -9.771330
v 11.819990 5.140754 -9.743090
v 11.811715 5.189578 -9.742103
v 11.810797 5.142670 -9.709929
v 11.804173 5.192964 -9.712893
v 11.785858 5.145738 -9.684808
v 11.782520 5.191786 -9.690955
v 11.753267 5.148057 -9.677088
v 11.753777 5.187763 -9.684757
v 11.719364 5.147056 -9.685917
v 11.725758 5.184819 -9.693794
v 11.693549 5.144058 -9.709838
v 11.703145 5.184378 -9.715705
v 11.684839 5.142059 -9.743307
v 11.694526 5.186033 -9.743783
v 11.693594 5.141680 -9.774145
v 11.701140 5.187962 -9.770919
v 11.718345 5.141929 -9.801291
v 11.722047 5.189313 -9.794282
v 11.755939 5.151825 -9.822989
v 11.795112 5.152617 -9.810074
v 11.822974 5.152155 -9.780845
v 11.835169 5.151369 -9.742763
v 11.826539 5.150380 -9.702371
v 11.796296 5.151961 -9.672908
v 11.757633 5.154455 -9.665103
v 11.718740 5.152988 -9.676330
v 11.686940 5.151256 -9.703234
v 11.674675 5.150899 -9.743046
v 11.685053 5.150445 -9.781068
v 11.715344 5.151069 -9.814038
v 11.757444 5.170261 -9.823624
v 11.794358 5.168588 -9.808348
v 11.822489 5.166535 -9.779111
v 11.835634 5.169414 -9.742058
v 11.829173 5.172507 -9.701594
v 11.799768 5.172595 -9.670305
v 11.759681 5.171041 -9.663260
v 11.719783 5.169972 -9.675671
v 11.688244 5.169415 -9.703885
v 11.676233 5.171482 -9.743298
v 11.685527 5.172641 -9.781916
v 11.715946 5.172264 -9.815260
v 11.756682 5.162145 -9.825224
v 11.713759 5.162065 -9.816520
v 11.682468 5.161993 -9.782883
v 11.672519 5.161761 -9.743307
v 11.686413 5.161449 -9.702447
v 11.718511 5.161825 -9.673797
v 11.758556 5.163970 -9.660604
v 11.799580 5.161930 -9.667890
v 11.830594 5.162140 -9.700388
v 11.836789 5.161853 -9.741935
v 11.824923 5.161080 -9.779518
v 11.795077 5.161393 -9.810642
v 11.754602 5.180525 -9.815315
v 11.788518 5.177349 -9.804645
v 11.815961 5.177217 -9.776675
v 11.826976 5.180812 -9.741982
v 11.820003 5.185341 -9.705559
v 11.792732 5.184649 -9.678078
v 11.756866 5.180531 -9.671261
v 11.722234 5.177717 -9.682740
v 11.694738 5.177918 -9.709470
v 11.683520 5.179601 -9.743895
v 11.692161 5.181586 -9.777225
v 11.718345 5.182420 -9.806514
v 11.768442 5.191965 -9.773081
v 11.750827 5.192778 -9.777838
v 11.781855 5.192124 -9.759742
v 11.786531 5.193329 -9.742342
v 11.782040 5.193740 -9.724939
v 11.769185 5.193004 -9.711855
v 11.752019 5.191577 -9.707456
v 11.734748 5.190500 -9.712002
v 11.720976 5.190670 -9.725551
v 11.716385 5.191378 -9.742898
v 11.720717 5.192546 -9.759257
v 11.733420 5.193335 -9.773313
v 11.741856 5.192603 -9.744104
v 11.817682 5.141683 -9.726797
v 11.836231 5.162010 -9.721413
v 11.786377 5.193567 -9.734048
v 11.810190 5.191400 -9.727812
v 11.833303 5.150803 -9.722768
v 11.834892 5.171046 -9.722075
v 11.825904 5.183225 -9.724030
v 11.800098 5.144174 -9.696103
v 11.816442 5.172637 -9.684646
v 11.808266 5.185143 -9.690525
v 11.777186 5.193404 -9.717252
v 11.795075 5.192503 -9.700686
v 11.817109 5.162049 -9.682837
v 11.813350 5.151099 -9.686287
v 11.770419 5.146871 -9.678144
v 11.780022 5.162927 -9.661438
v 11.761281 5.192307 -9.706814
v 11.768961 5.189821 -9.685036
v 11.777891 5.153179 -9.666203
v 11.780667 5.171836 -9.663971
v 11.775693 5.182637 -9.671856
v 11.734746 5.147565 -9.679662
v 11.737954 5.170466 -9.667703
v 11.737926 5.179018 -9.675222
v 11.742328 5.191000 -9.707844
v 11.738360 5.186185 -9.687457
v 11.736741 5.162880 -9.665450
v 11.736445 5.153723 -9.668921
v 11.817078 5.140533 -9.760088
v 11.830614 5.167974 -9.760585
v 11.823021 5.179014 -9.759329
v 11.785746 5.192727 -9.751041
v 11.808174 5.188193 -9.756717
v 11.832409 5.161467 -9.760727
v 11.830625 5.151762 -9.761804
v 11.799500 5.140724 -9.790852
v 11.811035 5.161236 -9.796633
v 11.776183 5.192045 -9.767964
v 11.791919 5.186445 -9.783961
v 11.810078 5.152386 -9.797012
v 11.809459 5.167562 -9.795282
v 11.803275 5.177283 -9.792213
v 11.769433 5.141774 -9.807382
v 11.776419 5.169425 -9.817539
v 11.772078 5.178937 -9.811533
v 11.760152 5.192371 -9.777013
v 11.776398 5.161769 -9.819486
v 11.766309 5.187199 -9.799303
v 11.776043 5.152221 -9.818085
v 11.735400 5.142174 -9.808844
v 11.737000 5.171248 -9.822563
v 11.735537 5.162105 -9.823997
v 11.736740 5.181458 -9.814039
v 11.742251 5.193052 -9.778668
v 11.735941 5.151453 -9.821640
v 11.736910 5.188807 -9.801264
v 11.701169 5.182050 -9.793113
v 11.724083 5.192928 -9.767809
v 11.696253 5.172564 -9.799816
v 11.707913 5.188625 -9.783985
v 11.702048 5.141727 -9.788992
v 11.693588 5.162018 -9.800975
v 11.695814 5.150634 -9.798775
v 11.688206 5.141931 -9.760340
v 11.676254 5.162003 -9.765164
v 11.696826 5.187211 -9.758824
v 11.678716 5.150708 -9.764020
v 11.717759 5.192136 -9.752054
v 11.679627 5.172294 -9.764606
v 11.686746 5.180839 -9.762289
v 11.704346 5.145578 -9.695304
v 11.686709 5.143059 -9.725330
v 11.679754 5.170448 -9.722349
v 11.700325 5.161601 -9.685565
v 11.686645 5.178760 -9.725440
v 11.716195 5.191024 -9.732982
v 11.712405 5.184551 -9.702208
v 11.696350 5.185205 -9.728501
v 11.700721 5.152117 -9.687212
v 11.701872 5.169681 -9.687212
v 11.676981 5.161605 -9.721635
v 11.706387 5.177763 -9.693542
v 11.725891 5.190563 -9.716266
v 11.678323 5.151077 -9.721897
vn 0.2671 0.7407 -0.6164
vn 0.1710 0.9235 -0.3433
vn 0.2328 0.9129 -0.3354
vn 0.3898 0.7168 -0.5781
vn 0.5061 0.7102 -0.4894
vn 0.2810 0.9131 -0.2953
vn 0.3220 0.9145 -0.2451
vn 0.5995 0.6977 -0.3923
vn 0.6400 0.7153 -0.2806
vn 0.3322 0.9229 -0.1947
vn 0.3397 0.9327 -0.1212
vn 0.6666 0.7326 -0.1380
vn 0.6514 0.7578 0.0383
vn 0.3011 0.9530 -0.0321
vn 0.2232 0.9705 0.0912
vn 0.5692 0.7797 0.2610
vn 0.4349 0.7853 0.4407
vn 0.1486 0.9699 0.1927
vn 0.0606 0.9638 0.2595
vn 0.2626 0.7836 0.5630
vn 0.0458 0.7584 0.6502
vn -0.0518 0.9413 0.3335
vn -0.1270 0.9277 0.3510
vn -0.1222 0.7444 0.6564
vn -0.2562 0.7480 0.6122
vn -0.2032 0.9139 0.3514
vn -0.2415 0.9071 0.3448
vn -0.3439 0.7575 0.5549
vn -0.4399 0.7694 0.4632
vn -0.3042 0.9032 0.3027
vn -0.3548 0.9033 0.2410
vn -0.5365 0.7681 0.3496
vn -0.6014 0.7658 0.2277
vn -0.3818 0.9090 0.1672
vn -0.3961 0.9169 0.0487
vn -0.6477 0.7610 0.0360
vn -0.6346 0.7629 -0.1234
vn -0.3819 0.9234 -0.0376
vn -0.3618 0.9257 -0.1109
vn -0.6021 0.7591 -0.2477
vn -0.1087 0.9846 0.1368
vn -0.1275 0.9788 0.1600
vn -0.5007 0.7593 -0.4156
vn -0.3084 0.9273 -0.2122
vn -0.1795 0.9381 -0.2961
vn -0.3110 0.7656 -0.5631
vn -0.1097 0.7598 -0.6409
vn -0.0556 0.9339 -0.3531
vn 0.0713 0.9320 -0.3555
vn 0.0990 0.7556 -0.6475
vn -0.0835 -0.9457 -0.3141
vn -0.1637 -0.5372 -0.8274
vn 0.0790 -0.5185 -0.8515
vn 0.0147 -0.9466 -0.3221
vn -0.2830 -0.9341 -0.2177
vn -0.6208 -0.5401 -0.5683
vn -0.3959 -0.5431 -0.7405
vn -0.1746 -0.9461 -0.2729
vn -0.3602 -0.9299 -0.0739
vn -0.8305 -0.5102 -0.2236
vn -0.7648 -0.5290 -0.3676
vn -0.3291 -0.9356 -0.1280
vn -0.3613 -0.9230 0.1325
vn -0.8410 -0.4642 0.2780
vn -0.8760 -0.4823 0.0033
vn -0.3830 -0.9236 0.0152
vn -0.2168 -0.9332 0.2867
vn -0.5453 -0.5086 0.6663
vn -0.7338 -0.4704 0.4902
vn -0.2623 -0.9391 0.2219
vn -0.0777 -0.9511 0.2989
vn -0.2065 -0.6235 0.7541
vn -0.3571 -0.5712 0.7391
vn -0.1305 -0.9445 0.3016
vn 0.0081 -0.9622 0.2723
vn 0.0995 -0.7028 0.7044
vn -0.0645 -0.6579 0.7503
vn -0.0295 -0.9572 0.2880
vn 0.1250 -0.9731 0.1937
vn 0.4829 -0.7070 0.5168
vn 0.3086 -0.7243 0.6166
vn 0.0731 -0.9714 0.2260
vn 0.2586 -0.9622 0.0847
vn 0.7827 -0.6032 0.1533
vn 0.6531 -0.6644 0.3634
vn 0.1881 -0.9710 0.1476
vn 0.3363 -0.9380 -0.0844
vn 0.8366 -0.4816 -0.2610
vn 0.8492 -0.5241 -0.0652
vn 0.3178 -0.9482 0.0012
vn 0.2711 -0.9240 -0.2697
vn 0.6518 -0.4047 -0.6414
vn 0.7742 -0.4312 -0.4634
vn 0.3378 -0.9213 -0.1927
vn 0.0917 -0.9396 -0.3298
vn 0.2791 -0.4753 -0.8344
vn 0.4846 -0.4143 -0.7704
vn 0.1874 -0.9247 -0.3315
vn -0.1984 -0.0198 -0.9799
vn -0.1531 0.4192 -0.8949
vn 0.1339 0.4147 -0.9000
vn 0.1091 -0.0049 -0.9940
vn -0.7476 -0.0045 -0.6642
vn -0.6597 0.4562 -0.5972
vn -0.4142 0.4360 -0.7990
vn -0.4823 -0.0185 -0.8758
vn -0.9671 0.0468 -0.2500
vn -0.8459 0.4940 -0.2011
vn -0.7977 0.4766 -0.3694
vn -0.9034 0.0171 -0.4285
vn -0.9457 0.0909 0.3121
vn -0.8163 0.5011 0.2874
vn -0.8639 0.5030 0.0270
vn -0.9972 0.0741 0.0099
vn -0.6567 0.0537 0.7523
vn -0.5851 0.4893 0.6467
vn -0.7326 0.4904 0.4720
vn -0.8367 0.0863 0.5408
vn -0.3029 -0.0134 0.9529
vn -0.2851 0.4821 0.8284
vn -0.4296 0.4825 0.7633
vn -0.4695 0.0091 0.8829
vn 0.1687 -0.1033 0.9802
vn 0.1554 0.4452 0.8819
vn -0.0836 0.4723 0.8775
vn -0.0883 -0.0335 0.9955
vn 0.7103 -0.1351 0.6908
vn 0.6655 0.4034 0.6280
vn 0.4490 0.4201 0.7886
vn 0.4723 -0.1506 0.8685
vn 0.9854 -0.0561 0.1609
vn 0.9153 0.3867 0.1127
vn 0.8285 0.3982 0.3936
vn 0.8876 -0.0953 0.4506
vn 0.9494 0.0612 -0.3082
vn 0.8525 0.4171 -0.3151
vn 0.9139 0.3860 -0.1257
vn 0.9954 -0.0013 -0.0956
vn 0.7195 0.1335 -0.6815
vn 0.6552 0.4420 -0.6127
vn 0.7653 0.4384 -0.4714
vn 0.8638 0.1106 -0.4916
vn 0.3513 0.0417 -0.9353
vn 0.3502 0.4252 -0.8346
vn 0.5171 0.4369 -0.7361
vn 0.5421 0.1039 -0.8339
vn 0.0841 0.9909 -0.1051
vn -0.0225 0.9995 0.0232
vn 0.0891 0.9907 -0.1031
vn 0.0904 0.9900 -0.1084
vn -0.1439 0.9829 0.1147
vn -0.1729 0.9818 0.0784
vn -0.1506 0.9875 0.0474
vn -0.1423 0.9893 0.0333
vn -0.1220 0.9925 0.0051
vn -0.1127 0.9929 -0.0387
vn 0.0832 0.9911 -0.1043
vn 0.0508 0.9949 -0.0868
vn 0.0852 0.9915 -0.0986
vn -0.0413 0.9973 -0.0615
vn 0.0080 0.9948 -0.1012
vn 0.0678 0.9951 -0.0725
vn 0.0529 0.9975 -0.0458
vn 0.0102 0.9999 -0.0002
vn -0.0161 0.9991 0.0394
vn -0.0441 0.9972 0.0608
vn -0.0825 0.9913 0.1029
vn -0.0914 0.9896 0.1110
vn -0.1184 0.9843 0.1307
vt 0.958333 0.923144
vt 0.958333 1.000000
vt 0.916667 1.000000
vt 0.916667 0.923144
vt 0.875000 0.923144
vt 0.875000 1.000000
vt 0.833333 1.000000
vt 0.833333 0.923144
vt 0.791666 0.923144
vt 0.791666 1.000000
vt 0.750000 1.000000
vt 0.750000 0.923144
vt 0.708333 0.923144
vt 0.708334 1.000000
vt 0.666832 1.000000
vt 0.666832 0.923144
vt 0.625000 0.923144
vt 0.625000 1.000000
vt 0.583333 1.000000
vt 0.583333 0.923144
vt 0.543624 0.923144
vt 0.543625 1.000000
vt 0.502048 1.000000
vt 0.502048 0.923144
vt 0.458333 0.923144
vt 0.458333 1.000000
vt 0.419817 1.000000
vt 0.419817 0.923144
vt 0.376262 0.923144
vt 0.376262 1.000000
vt 0.333333 1.000000
vt 0.333333 0.923144
vt 0.291667 0.923144
vt 0.291666 1.000000
vt 0.250000 1.000000
vt 0.250000 0.923144
vt 0.208333 0.923144
vt 0.208333 1.000000
vt 0.171741 1.000000
vt 0.171741 0.923144
vt 0.419817 1.000000
vt 0.376262 1.000000
vt 0.130774 0.923144
vt 0.130774 1.000000
vt 0.083333 1.000000
vt 0.083333 0.923143
vt 0.041054 0.923144
vt 0.041054 1.000000
vt 0.000000 1.000000
vt 0.000000 0.923144
vt 0.041054 0.500000
vt 0.041054 0.610092
vt 0.000000 0.610092
vt 0.000000 0.500000
vt 0.130774 0.500000
vt 0.130774 0.610092
vt 0.083333 0.610092
vt 0.083333 0.500000
vt 0.208333 0.500000
vt 0.208333 0.610092
vt 0.171741 0.610092
vt 0.171741 0.500000
vt 0.291667 0.500000
vt 0.291667 0.610092
vt 0.250000 0.610092
vt 0.250000 0.500000
vt 0.376262 0.500000
vt 0.376262 0.610092
vt 0.333333 0.610092
vt 0.333333 0.500000
vt 0.458333 0.500000
vt 0.458333 0.610092
vt 0.419817 0.610092
vt 0.419817 0.500000
vt 0.543625 0.500000
vt 0.543625 0.610092
vt 0.502048 0.610092
vt 0.502048 0.500000
vt 0.625000 0.500000
vt 0.625000 0.610092
vt 0.583333 0.610092
vt 0.583333 0.500000
vt 0.708333 0.500000
vt 0.708333 0.610092
vt 0.666832 0.610092
vt 0.666832 0.500000
vt 0.791667 0.500000
vt 0.791666 0.610092
vt 0.750000 0.610092
vt 0.750000 0.500000
vt 0.875000 0.500000
vt 0.875000 0.610092
vt 0.833333 0.610092
vt 0.833333 0.500000
vt 0.958333 0.500000
vt 0.958333 0.610092
vt 0.916667 0.610092
vt 0.916667 0.500000
vt 0.041054 0.711521
vt 0.041054 0.810218
vt 0.000000 0.810218
vt 0.000000 0.711521
vt 0.130774 0.711521
vt 0.130774 0.810218
vt 0.083333 0.810218
vt 0.083333 0.711521
vt 0.208333 0.711521
vt 0.208333 0.810218
vt 0.171741 0.810218
vt 0.171741 0.711521
vt 0.291667 0.711521
vt 0.291667 0.810218
vt 0.250000 0.810218
vt 0.250000 0.711521
vt 0.376262 0.711521
vt 0.376262 0.810218
vt 0.333333 0.810218
vt 0.333333 0.711521
vt 0.458333 0.711521
vt 0.458333 0.810218
vt 0.419817 0.810218
vt 0.419817 0.711521
vt 0.543625 0.711521
vt 0.543625 0.810218
vt 0.502048 0.810218
vt 0.502048 0.711521
vt 0.625000 0.711521
vt 0.625000 0.810218
vt 0.583334 0.810218
vt 0.583333 0.711521
vt 0.708333 0.711521
vt 0.708333 0.810218
vt 0.666832 0.810218
vt 0.666832 0.711521
vt 0.791667 0.711521
vt 0.791667 0.810218
vt 0.750000 0.810218
vt 0.750000 0.711521
vt 0.875000 0.711521
vt 0.875000 0.810218
vt 0.833333 0.810218
vt 0.833333 0.711521
vt 0.958333 0.711521
vt 0.958333 0.810218
vt 0.916667 0.810218
vt 0.916667 0.711521
vt 0.370000 0.457846
vt 0.185923 0.259730
vt 0.457846 0.370000
vt 0.413923 0.413923
vt 0.291667 1.000000
vt 0.208333 1.000000
vt 0.875000 1.000000
vt 0.171741 1.000000
vt 0.130774 1.000000
vt 1.000000 1.000000
vt 0.958333 1.000000
vt 0.041054 1.000000
vt 0.708333 1.000000
vt 0.666832 1.000000
vt 0.625000 1.000000
vt 0.543624 1.000000
vt 0.458333 1.000000
vt 0.252950 0.010790
vt 0.134537 0.040938
vt 0.190000 0.026077
vt 0.490000 0.250000
vt 0.455169 0.131820
vt 0.473923 0.190000
vt 0.010000 0.250000
vt 0.044651 0.360122
vt 0.026077 0.310000
vt 0.130000 0.457846
vt 0.080960 0.407277
vt 0.250000 0.490000
vt 0.190882 0.474159
vt 0.310000 0.473923
vt 0.473923 0.310000
vt 0.370000 0.042154
vt 0.413923 0.086077
vt 0.312820 0.026832
vt 0.026077 0.190000
vt 0.042154 0.130000
vt 0.087442 0.084805
vt 1.000000 0.810218
vt 1.000000 0.923144
vt 1.000000 0.610092
vt 1.000000 0.711521
vt 1.000000 0.500000
vt 0.750000 0.490000
vt 0.810000 0.473923
vt 0.870000 0.457846
vt 0.913923 0.413923
vt 0.957846 0.370000
vt 0.973923 0.310000
vt 0.990000 0.250000
vt 0.973923 0.190000
vt 0.955169 0.131820
vt 0.913923 0.086077
vt 0.870000 0.042154
vt 0.812819 0.026832
vt 0.752950 0.010790
vt 0.690000 0.026077
vt 0.634537 0.040938
vt 0.587442 0.084805
vt 0.542154 0.130000
vt 0.526077 0.190000
vt 0.510000 0.250000
vt 0.526077 0.310000
vt 0.544651 0.360122
vt 0.580960 0.407277
vt 0.630000 0.457846
vt 0.690882 0.474159
s 1
usemtl GLASS.001
f 130/1/1 133/2/2 4/3/3 62/4/4
f 127/5/5 124/6/6 6/7/7 63/8/8
f 116/9/9 118/10/10 8/11/11 64/12/12
f 92/13/13 89/14/14 10/15/15 65/16/16
f 95/17/17 97/18/18 12/19/19 66/20/20
f 106/21/21 103/22/22 14/23/23 67/24/24
f 109/25/25 111/26/26 16/27/27 68/28/28
f 167/29/29 162/30/30 18/31/31 69/32/32
f 160/33/33 163/34/34 20/35/35 70/36/36
f 155/37/37 151/38/38 22/39/39 71/40/40
f 162/30/30 16/27/27 80/41/41 168/42/42
f 142/43/43 145/44/44 24/45/45 72/46/46
f 138/47/47 141/48/48 2/49/49 61/50/50
f 135/51/51 140/52/52 25/53/53 1/54/54
f 146/55/55 148/56/56 36/57/57 23/58/58
f 149/59/59 152/60/60 35/61/61 21/62/62
f 157/63/63 169/64/64 34/65/65 19/66/66
f 156/67/67 164/68/68 33/69/69 17/70/70
f 107/71/71 113/72/72 32/73/73 15/74/74
f 100/75/75 104/76/76 31/77/77 13/78/78
f 93/79/79 99/80/80 30/81/81 11/82/82
f 86/83/83 90/84/84 29/85/85 9/86/86
f 114/87/87 120/88/88 28/89/89 7/90/90
f 121/91/91 125/92/92 27/93/93 5/94/94
f 128/95/95 134/96/96 26/97/97 3/98/98
f 137/99/99 136/100/100 37/101/101 49/102/102
f 147/103/103 144/104/104 48/105/105 50/106/106
f 150/107/107 154/108/108 47/109/109 51/110/110
f 166/111/111 158/112/112 46/113/113 52/114/114
f 159/115/115 165/116/116 45/117/117 53/118/118
f 112/119/119 108/120/120 44/121/121 54/122/122
f 101/123/123 105/124/124 43/125/125 55/126/126
f 98/127/127 94/128/128 42/129/129 56/130/130
f 87/131/131 91/132/132 41/133/133 57/134/134
f 119/135/135 115/136/136 40/137/137 58/138/138
f 122/139/139 126/140/140 39/141/141 59/142/142
f 132/143/143 129/144/144 38/145/145 60/146/146
f 140/52/52 137/99/99 49/102/102 25/53/53
f 148/56/56 147/103/103 50/106/106 36/57/57
f 152/60/60 150/107/107 51/110/110 35/61/61
f 169/64/64 166/111/111 52/114/114 34/65/65
f 164/68/68 159/115/115 53/118/118 33/69/69
f 113/72/72 112/119/119 54/122/122 32/73/73
f 104/76/76 101/123/123 55/126/126 31/77/77
f 99/80/80 98/127/127 56/130/130 30/81/81
f 90/84/84 87/131/131 57/134/134 29/85/85
f 120/88/88 119/135/135 58/138/138 28/89/89
f 125/92/92 122/139/139 59/142/142 27/93/93
f 134/96/96 132/143/143 60/146/146 26/97/97
f 136/100/100 138/47/47 61/50/50 37/101/101
f 144/104/104 142/43/43 72/46/46 48/105/105
f 154/108/108 155/37/37 71/40/40 47/109/109
f 158/112/112 160/33/33 70/36/36 46/113/113
f 165/116/116 167/29/29 69/32/32 45/117/117
f 108/120/120 109/25/25 68/28/28 44/121/121
f 105/124/124 106/21/21 67/24/24 43/125/125
f 94/128/128 95/17/17 66/20/20 42/129/129
f 91/132/132 92/13/13 65/16/16 41/133/133
f 115/136/136 116/9/9 64/12/12 40/137/137
f 126/140/140 127/5/5 63/8/8 39/141/141
f 129/144/144 130/1/1 62/4/4 38/145/145
f 73/147/147 85/148/148 75/149/149 123/150/150
f 163/34/34 18/31/31 81/31/151 161/151/152
f 151/38/38 20/35/35 82/35/153 153/152/154
f 124/6/6 4/3/3 73/3/147 123/153/150
f 145/44/44 22/39/39 83/154/155 143/155/156
f 118/10/10 6/7/7 75/7/149 117/10/157
f 133/2/2 2/156/49 74/156/158 131/157/159
f 141/48/48 24/45/45 84/45/160 139/158/161
f 89/14/14 8/11/11 76/11/162 88/159/163
f 97/18/18 10/15/15 77/160/164 96/161/165
f 103/22/22 12/19/19 78/19/166 102/162/167
f 111/26/26 14/23/23 79/23/168 110/163/169
f 79/164/168 85/148/148 80/165/41 110/166/169
f 76/167/162 85/148/148 77/168/164 88/169/163
f 82/170/153 85/148/148 83/171/155 153/172/154
f 83/171/155 85/148/148 84/173/160 143/174/156
f 84/173/160 85/148/148 74/175/158 139/176/161
f 85/148/148 73/147/147 131/177/159 74/175/158
f 75/149/149 85/148/148 76/167/162 117/178/157
f 77/168/164 85/148/148 78/179/166 96/180/165
f 78/179/166 85/148/148 79/164/168 102/181/167
f 85/148/148 82/170/153 161/182/152 81/183/151
f 81/183/151 168/184/42 80/165/41 85/148/148
f 10/15/15 89/14/14 88/159/163 77/160/164
f 40/137/137 64/12/12 92/13/13 91/132/132
f 28/89/89 58/138/138 87/131/131 90/84/84
f 58/138/138 40/137/137 91/132/132 87/131/131
f 7/90/90 28/89/89 90/84/84 86/83/83
f 64/12/12 8/11/11 89/14/14 92/13/13
f 12/19/19 97/18/18 96/161/165 78/19/166
f 41/133/133 65/16/16 95/17/17 94/128/128
f 29/85/85 57/134/134 98/127/127 99/80/80
f 57/134/134 41/133/133 94/128/128 98/127/127
f 9/86/86 29/85/85 99/80/80 93/79/79
f 65/16/16 10/15/15 97/18/18 95/17/17
f 14/23/23 103/22/22 102/162/167 79/23/168
f 42/129/129 66/20/20 106/21/21 105/124/124
f 30/81/81 56/130/130 101/123/123 104/76/76
f 56/130/130 42/129/129 105/124/124 101/123/123
f 11/82/82 30/81/81 104/76/76 100/75/75
f 66/20/20 12/19/19 103/22/22 106/21/21
f 16/27/27 111/26/26 110/163/169 80/41/41
f 43/125/125 67/24/24 109/25/25 108/120/120
f 31/77/77 55/126/126 112/119/119 113/72/72
f 55/126/126 43/125/125 108/120/120 112/119/119
f 13/78/78 31/77/77 113/72/72 107/71/71
f 67/24/24 14/23/23 111/26/26 109/25/25
f 8/11/11 118/10/10 117/10/157 76/11/162
f 39/141/141 63/8/8 116/9/9 115/136/136
f 27/93/93 59/142/142 119/135/135 120/88/88
f 59/142/142 39/141/141 115/136/136 119/135/135
f 5/94/94 27/93/93 120/88/88 114/87/87
f 63/8/8 6/7/7 118/10/10 116/9/9
f 6/7/7 124/6/6 123/153/150 75/7/149
f 38/145/145 62/4/4 127/5/5 126/140/140
f 26/97/97 60/146/146 122/139/139 125/92/92
f 60/146/146 38/145/145 126/140/140 122/139/139
f 3/98/98 26/97/97 125/92/92 121/91/91
f 62/4/4 4/3/3 124/6/6 127/5/5
f 4/3/3 133/2/2 131/157/159 73/3/147
f 37/185/101 61/186/50 130/1/1 129/144/144
f 25/187/53 49/188/102 132/143/143 134/96/96
f 49/188/102 37/185/101 129/144/144 132/143/143
f 1/189/54 25/187/53 134/96/96 128/95/95
f 61/186/50 2/156/49 133/2/2 130/1/1
f 2/49/49 141/48/48 139/158/161 74/49/158
f 48/105/105 72/46/46 138/47/47 136/100/100
f 36/57/57 50/106/106 137/99/99 140/52/52
f 50/106/106 48/105/105 136/100/100 137/99/99
f 23/58/58 36/57/57 140/52/52 135/51/51
f 72/46/46 24/45/45 141/48/48 138/47/47
f 24/45/45 145/44/44 143/155/156 84/45/160
f 47/109/109 71/40/40 142/43/43 144/104/104
f 35/61/61 51/110/110 147/103/103 148/56/56
f 51/110/110 47/109/109 144/104/104 147/103/103
f 21/62/62 35/61/61 148/56/56 146/55/55
f 71/40/40 22/39/39 145/44/44 142/43/43
f 22/39/39 151/38/38 153/152/154 83/154/155
f 46/113/113 70/36/36 155/37/37 154/108/108
f 34/65/65 52/114/114 150/107/107 152/60/60
f 52/114/114 46/113/113 154/108/108 150/107/107
f 19/66/66 34/65/65 152/60/60 149/59/59
f 70/36/36 20/35/35 151/38/38 155/37/37
f 20/35/35 163/34/34 161/151/152 82/35/153
f 44/121/121 68/28/28 167/29/29 165/116/116
f 45/117/117 69/32/32 160/33/33 158/112/112
f 32/73/73 54/122/122 159/115/115 164/68/68
f 33/69/69 53/118/118 166/111/111 169/64/64
f 54/122/122 44/121/121 165/116/116 159/115/115
f 53/118/118 45/117/117 158/112/112 166/111/111
f 15/74/74 32/73/73 164/68/68 156/67/67
f 17/70/70 33/69/69 169/64/64 157/63/63
f 18/31/31 162/30/30 168/42/42 81/31/151
f 69/32/32 18/31/31 163/34/34 160/33/33
f 68/28/28 16/27/27 162/30/30 167/29/29
f 1/190/54 128/191/95 3/192/98 121/193/91 5/194/94 114/195/87 7/196/90 86/197/83 9/198/86 93/199/79 11/200/82 100/201/75 13/202/78 107/203/71 15/204/74 156/205/67 17/206/70 157/207/63 19/208/66 149/209/59 21/210/62 146/211/55 23/212/58 135/213/51
