# Blender 4.1.0
# www.blender.org
mtllib PIECE_LP 1.mtl
o PIECE_1
v 11.571514 5.132420 -9.961548
v 11.570992 5.178797 -9.950109
v 11.605836 5.131276 -9.952352
v 11.598633 5.177020 -9.941688
v 11.637802 5.130519 -9.916271
v 11.625520 5.178204 -9.910960
v 11.641138 5.130814 -9.898115
v 11.629192 5.179684 -9.896402
v 11.631804 5.132725 -9.861718
v 11.621932 5.183282 -9.866509
v 11.606430 5.135852 -9.837056
v 11.601230 5.181935 -9.846230
v 11.572993 5.138230 -9.829284
v 11.573451 5.178142 -9.840320
v 11.538678 5.137128 -9.838676
v 11.546746 5.175420 -9.849255
v 11.514121 5.134172 -9.862086
v 11.526394 5.175147 -9.869443
v 11.505411 5.132174 -9.895555
v 11.518327 5.176680 -9.895942
v 11.513962 5.131652 -9.928826
v 11.524438 5.178650 -9.923530
v 11.539317 5.132050 -9.952918
v 11.544631 5.179657 -9.943062
v 11.574887 5.141058 -9.973007
v 11.614037 5.141584 -9.960039
v 11.649573 5.140933 -9.918512
v 11.654568 5.140602 -9.898280
v 11.646408 5.139658 -9.854690
v 11.615919 5.141510 -9.826238
v 11.576823 5.144050 -9.818387
v 11.537937 5.142505 -9.830047
v 11.508113 5.140715 -9.856082
v 11.496171 5.140210 -9.895318
v 11.505946 5.139574 -9.935757
v 11.536672 5.140353 -9.964268
v 11.576467 5.159656 -9.974868
v 11.614404 5.157967 -9.959495
v 11.650754 5.156889 -9.917397
v 11.656402 5.158446 -9.897484
v 11.650686 5.161815 -9.853214
v 11.620309 5.161758 -9.822397
v 11.579120 5.160440 -9.815280
v 11.538736 5.159293 -9.828414
v 11.508619 5.158765 -9.856006
v 11.496491 5.160692 -9.895545
v 11.505167 5.161955 -9.937455
v 11.536872 5.161360 -9.966696
v 11.575560 5.149446 -9.976961
v 11.534648 5.149242 -9.968271
v 11.502007 5.148980 -9.938596
v 11.492429 5.148974 -9.895537
v 11.506078 5.148863 -9.854359
v 11.537032 5.149537 -9.826381
v 11.577830 5.151673 -9.812786
v 11.619907 5.149432 -9.820376
v 11.652060 5.149146 -9.852024
v 11.658275 5.149070 -9.897729
v 11.653175 5.148787 -9.918282
v 11.615542 5.149065 -9.962221
v 11.573130 5.172791 -9.962995
v 11.606368 5.170168 -9.952340
v 11.639330 5.171015 -9.914628
v 11.643681 5.172941 -9.896933
v 11.636811 5.177840 -9.859338
v 11.610489 5.176736 -9.833866
v 11.575702 5.172561 -9.827192
v 11.542548 5.169722 -9.838603
v 11.517612 5.169865 -9.863420
v 11.507112 5.171533 -9.896104
v 11.514883 5.173708 -9.930250
v 11.540375 5.174335 -9.954727
v 11.588725 5.182167 -9.924695
v 11.570786 5.182892 -9.929792
v 11.607251 5.182573 -9.904182
v 11.608210 5.183293 -9.895300
v 11.602654 5.183918 -9.876967
v 11.589757 5.183118 -9.864103
v 11.572135 5.181655 -9.859735
v 11.554699 5.180573 -9.864591
v 11.541548 5.180784 -9.877799
v 11.536957 5.181492 -9.895146
v 11.541522 5.182743 -9.912663
v 11.554126 5.183380 -9.925314
v 11.568848 5.182521 -9.903259
v 11.646530 5.163911 -9.916432
v 11.638579 5.131797 -9.878528
v 11.657515 5.149134 -9.873220
v 11.607275 5.183681 -9.885778
v 11.627670 5.181643 -9.880454
v 11.652781 5.140088 -9.874865
v 11.655913 5.160299 -9.873764
v 11.642473 5.175600 -9.876800
v 11.620914 5.134288 -9.847589
v 11.637298 5.161787 -9.836006
v 11.625453 5.177289 -9.844798
v 11.598002 5.183518 -9.868738
v 11.613339 5.182609 -9.854611
v 11.637813 5.149289 -9.834371
v 11.632961 5.140584 -9.838666
v 11.590012 5.137041 -9.830773
v 11.599174 5.150552 -9.814142
v 11.581245 5.182387 -9.859523
v 11.587633 5.180038 -9.840930
v 11.596671 5.142780 -9.819916
v 11.600015 5.161099 -9.816440
v 11.593396 5.174648 -9.828125
v 11.554588 5.137649 -9.832442
v 11.557512 5.159835 -9.820411
v 11.557908 5.171062 -9.831409
v 11.562635 5.181085 -9.860499
v 11.559068 5.176706 -9.843276
v 11.555999 5.150546 -9.818130
v 11.556006 5.143234 -9.822742
v 11.524302 5.135650 -9.849782
v 11.507668 5.133173 -9.878222
v 11.500456 5.159728 -9.875175
v 11.519421 5.149200 -9.839760
v 11.510258 5.170699 -9.879161
v 11.575001 5.166399 -9.970254
v 11.537155 5.181138 -9.885874
v 11.534518 5.175283 -9.858763
v 11.520308 5.175913 -9.882106
v 11.520928 5.141610 -9.842465
v 11.521579 5.159029 -9.841610
v 11.497119 5.148918 -9.874338
v 11.527976 5.169793 -9.850410
v 11.546026 5.180679 -9.870596
v 11.500045 5.140462 -9.875101
v 11.508188 5.131913 -9.912491
v 11.495693 5.148977 -9.917372
v 11.519917 5.177665 -9.910028
v 11.499560 5.139892 -9.915836
v 11.537742 5.182117 -9.904204
v 11.499330 5.161324 -9.916800
v 11.509495 5.172621 -9.913478
v 11.524855 5.174072 -9.943998
v 11.545480 5.183081 -9.920551
v 11.518069 5.161707 -9.953608
v 11.531977 5.179185 -9.934776
v 11.523891 5.131839 -9.942365
v 11.515312 5.149106 -9.954980
v 11.518404 5.139946 -9.951523
v 11.553584 5.132269 -9.959429
v 11.554749 5.160570 -9.973272
v 11.553109 5.149357 -9.975110
v 11.554946 5.173683 -9.961115
v 11.561071 5.183181 -9.929479
v 11.553824 5.140694 -9.971029
v 11.556173 5.179319 -9.948660
v 11.591098 5.131780 -9.958629
v 11.598125 5.158732 -9.968501
v 11.592030 5.171185 -9.959309
v 11.581014 5.182439 -9.928662
v 11.598375 5.149239 -9.971102
v 11.586781 5.177675 -9.947412
v 11.597302 5.141412 -9.968065
v 11.630748 5.130383 -9.931297
v 11.644495 5.148565 -9.935592
v 11.603490 5.182071 -9.913294
v 11.619355 5.177302 -9.923778
v 11.641373 5.140981 -9.935237
v 11.642165 5.156468 -9.934110
v 11.631753 5.170043 -9.929867
v 11.645323 5.170338 -9.855522
v 11.577632 5.166636 -9.819904
v 11.512328 5.164496 -9.859242
v 11.509182 5.168204 -9.934482
v 11.611140 5.164001 -9.957142
v 11.651576 5.165791 -9.897272
v 11.616352 5.169728 -9.826878
v 11.540259 5.164564 -9.832459
v 11.500764 5.166356 -9.895894
v 11.538240 5.168197 -9.961851
v 11.650764 5.168269 -9.874897
v 11.632647 5.170033 -9.839391
v 11.597294 5.168182 -9.820979
v 11.557611 5.165543 -9.824719
v 11.524183 5.164530 -9.845247
v 11.504436 5.165426 -9.876965
v 11.503466 5.167280 -9.915489
v 11.520825 5.168256 -9.949691
v 11.554739 5.167398 -9.968440
v 11.595575 5.164988 -9.965215
v 11.638282 5.163166 -9.932678
v 11.630038 5.148646 -9.952621
v 11.618550 5.130665 -9.945170
v 11.596764 5.181888 -9.921203
v 11.609295 5.176834 -9.935632
v 11.627806 5.141185 -9.951266
v 11.628286 5.156984 -9.950388
v 11.619197 5.169746 -9.944467
v 11.624755 5.163273 -9.948437
vn 0.2348 0.8225 -0.5181
vn 0.1592 0.9364 -0.3128
vn 0.1981 0.9315 -0.3050
vn 0.3123 0.8119 -0.4933
vn 0.4827 0.8009 -0.3542
vn 0.2853 0.9295 -0.2337
vn 0.3001 0.9358 -0.1848
vn 0.5290 0.8066 -0.2636
vn 0.2989 0.9461 -0.1243
vn 0.5518 0.8211 -0.1460
vn 0.5347 0.8450 -0.0033
vn 0.2618 0.9640 -0.0468
vn 0.1803 0.9812 0.0690
vn 0.4508 0.8703 0.1985
vn 0.3266 0.8688 0.3722
vn 0.1104 0.9788 0.1727
vn 0.0304 0.9732 0.2281
vn 0.1754 0.8633 0.4733
vn 0.0052 0.8425 0.5386
vn -0.0617 0.9558 0.2876
vn -0.1258 0.9425 0.3096
vn -0.1306 0.8286 0.5445
vn -0.2425 0.8263 0.5083
vn -0.1908 0.9313 0.3101
vn -0.2362 0.9227 0.3047
vn -0.3230 0.8269 0.4605
vn -0.3912 0.8329 0.3914
vn -0.2784 0.9219 0.2693
vn -0.3202 0.9212 0.2210
vn -0.4607 0.8324 0.3080
vn -0.5119 0.8346 0.2033
vn -0.3407 0.9278 0.1522
vn -0.3501 0.9348 0.0592
vn -0.5450 0.8365 0.0569
vn -0.5381 0.8400 -0.0690
vn -0.3389 0.9408 -0.0122
vn -0.3071 0.9468 -0.0962
vn -0.4917 0.8453 -0.2091
vn -0.1264 0.9800 0.1535
vn -0.1354 0.9764 0.1683
vn -0.3830 0.8453 -0.3726
vn -0.2394 0.9505 -0.1979
vn -0.1482 0.9539 -0.2610
vn -0.2520 0.8442 -0.4730
vn -0.1043 0.8385 -0.5349
vn -0.0542 0.9502 -0.3070
vn 0.0604 0.9457 -0.3195
vn 0.0763 0.8338 -0.5468
vn -0.3583 -0.9244 0.1311
vn -0.2123 -0.9363 0.2797
vn -0.2387 -0.9486 0.2078
vn -0.0924 -0.9450 -0.3136
vn -0.1695 -0.6262 -0.7610
vn 0.0548 -0.6097 -0.7907
vn 0.0051 -0.9434 -0.3315
vn -0.2480 -0.9399 -0.2345
vn -0.5216 -0.6316 -0.5736
vn -0.3549 -0.6312 -0.6897
vn -0.1656 -0.9477 -0.2730
vn -0.3618 -0.9304 -0.0588
vn -0.7826 -0.5962 -0.1790
vn -0.6921 -0.6200 -0.3696
vn -0.3251 -0.9353 -0.1398
vn -0.7890 -0.5585 0.2561
vn -0.8197 -0.5722 0.0242
vn -0.3831 -0.9233 0.0283
vn -0.5114 -0.6035 0.6117
vn -0.6788 -0.5675 0.4660
vn -0.0775 -0.9518 0.2966
vn -0.1852 -0.7028 0.6868
vn -0.3498 -0.6534 0.6714
vn -0.1518 -0.9405 0.3039
vn 0.0075 -0.9630 0.2693
vn 0.0775 -0.7687 0.6349
vn -0.0602 -0.7299 0.6809
vn -0.0316 -0.9558 0.2923
vn 0.1201 -0.9723 0.2007
vn 0.4123 -0.7756 0.4779
vn 0.2477 -0.7870 0.5650
vn 0.0654 -0.9703 0.2328
vn 0.2607 -0.9620 0.0817
vn 0.7097 -0.6925 0.1298
vn 0.5801 -0.7455 0.3281
vn 0.1845 -0.9718 0.1470
vn 0.3453 -0.9327 -0.1043
vn 0.7665 -0.5790 -0.2778
vn 0.7779 -0.6246 -0.0682
vn 0.3254 -0.9456 -0.0011
vn 0.3228 -0.9241 -0.2046
vn 0.6983 -0.5452 -0.4637
vn 0.0994 -0.9355 -0.3390
vn 0.2700 -0.5754 -0.7720
vn 0.4028 -0.5348 -0.7428
vn 0.1652 -0.9304 -0.3272
vn -0.2168 -0.1246 -0.9682
vn -0.1777 0.3851 -0.9056
vn 0.1128 0.3866 -0.9153
vn 0.0839 -0.1089 -0.9905
vn -0.6767 -0.1186 -0.7266
vn -0.6159 0.4106 -0.6723
vn -0.4115 0.3947 -0.8215
vn -0.4600 -0.1257 -0.8790
vn -0.9744 -0.0676 -0.2143
vn -0.8794 0.4423 -0.1762
vn -0.8005 0.4306 -0.4169
vn -0.8805 -0.0986 -0.4637
vn -0.9515 -0.0182 0.3070
vn -0.8394 0.4625 0.2856
vn -0.8886 0.4566 0.0434
vn -0.9988 -0.0370 0.0306
vn -0.6682 -0.0519 0.7422
vn -0.6064 0.4586 0.6496
vn -0.7421 0.4608 0.4868
vn -0.8347 -0.0218 0.5503
vn -0.3009 -0.1345 0.9441
vn -0.2949 0.4335 0.8515
vn -0.4596 0.4427 0.7699
vn -0.4918 -0.1022 0.8647
vn 0.1569 -0.2245 0.9617
vn 0.1575 0.3878 0.9082
vn -0.0804 0.4170 0.9053
vn -0.0892 -0.1551 0.9839
vn 0.6731 -0.2503 0.6959
vn 0.6642 0.3526 0.6591
vn 0.4352 0.3643 0.8233
vn 0.4305 -0.2634 0.8633
vn 0.9746 -0.1699 0.1459
vn 0.9285 0.3562 0.1049
vn 0.8437 0.3567 0.4012
vn 0.8705 -0.2126 0.4438
vn 0.9360 -0.0517 -0.3480
vn 0.8488 0.4016 -0.3440
vn 0.9176 0.3743 -0.1340
vn 0.9885 -0.1071 -0.1072
vn 0.8374 -0.0176 -0.5464
vn 0.7563 0.4177 -0.5035
vn 0.3564 -0.0702 -0.9317
vn 0.3610 0.3999 -0.8425
vn 0.4827 0.4134 -0.7721
vn 0.5066 -0.0191 -0.8620
vn -0.1429 0.6665 -0.7317
vn 0.0937 0.6612 -0.7443
vn -0.5046 0.6818 -0.5296
vn -0.3372 0.6730 -0.6582
vn -0.7220 0.6806 -0.1246
vn -0.6538 0.6879 -0.3152
vn -0.6795 0.6914 0.2455
vn -0.7290 0.6827 0.0494
vn -0.4947 0.7033 0.5106
vn -0.5967 0.7009 0.3907
vn -0.2697 0.6721 0.6895
vn -0.3900 0.6896 0.6103
vn 0.0816 0.6664 0.7411
vn -0.1112 0.6616 0.7416
vn 0.5117 0.6768 0.5293
vn 0.3100 0.6793 0.6652
vn 0.7542 0.6548 0.0496
vn 0.6701 0.6750 0.3087
vn 0.7161 0.6213 -0.3181
vn 0.7563 0.6371 -0.1487
vn 0.6483 0.6161 -0.4473
vn 0.3050 0.6474 -0.6985
vn 0.4146 0.6300 -0.6566
vn -0.1306 0.9914 0.0055
vn -0.0065 0.9999 -0.0101
vn -0.0549 0.9960 -0.0699
vn -0.0921 0.9945 -0.0503
vn -0.1674 0.9763 0.1369
vn -0.1797 0.9799 0.0864
vn -0.1566 0.9863 0.0517
vn -0.1473 0.9874 0.0577
vn 0.2377 0.9264 -0.2922
vn 0.0893 0.9890 -0.1182
vn 0.0870 0.9871 -0.1343
vn 0.0974 0.9864 -0.1325
vn 0.0760 0.9926 -0.0952
vn 0.0691 0.9923 -0.1027
vn 0.1031 0.9883 -0.1123
vn 0.0200 0.9942 -0.1060
vn 0.0578 0.9971 -0.0505
vn 0.0062 1.0000 -0.0017
vn -0.0212 0.9989 0.0428
vn -0.0492 0.9970 0.0595
vn -0.0820 0.9918 0.0981
vn -0.1052 0.9885 0.1085
vn -0.1412 0.9817 0.1280
vn 0.5514 -0.5245 -0.6487
vn 0.2473 -0.9186 -0.3081
vn 0.0837 0.9902 -0.1114
vn 0.3916 0.8009 -0.4530
vn 0.6150 0.4183 -0.6684
vn 0.5256 0.6173 -0.5854
vn 0.6659 -0.0039 -0.7460
vt 0.954271 0.945726
vt 0.954337 1.000597
vt 0.916060 1.000119
vt 0.916047 0.944390
vt 0.842150 0.944057
vt 0.842150 1.000000
vt 0.806945 1.000000
vt 0.806945 0.944057
vt 0.760382 1.000000
vt 0.760382 0.944057
vt 0.708333 0.944057
vt 0.708333 1.000000
vt 0.666667 1.000000
vt 0.666667 0.944057
vt 0.625000 0.944057
vt 0.625000 1.000000
vt 0.583333 1.000000
vt 0.583333 0.944057
vt 0.541667 0.944057
vt 0.541667 1.000000
vt 0.500000 1.000000
vt 0.500000 0.944057
vt 0.456030 0.944057
vt 0.456030 1.000000
vt 0.416667 1.000000
vt 0.416667 0.944057
vt 0.375000 0.944057
vt 0.375000 1.000000
vt 0.333333 1.000000
vt 0.333333 0.944057
vt 0.291667 0.944057
vt 0.291666 1.000000
vt 0.250000 1.000000
vt 0.250000 0.944057
vt 0.208334 0.944057
vt 0.208333 1.000000
vt 0.166667 1.000000
vt 0.166667 0.944057
vt 0.375000 1.000000
vt 0.126812 0.944057
vt 0.126812 1.000000
vt 0.082969 1.000000
vt 0.082969 0.944056
vt 0.044445 0.944057
vt 0.044445 1.000000
vt 0.002492 1.001350
vt 0.002539 0.946864
vt 0.526077 0.190000
vt 0.586077 0.086077
vt 0.542154 0.130000
vt 0.044445 0.500000
vt 0.044445 0.600084
vt 0.002431 0.596918
vt 0.002666 0.495857
vt 0.126812 0.500000
vt 0.126812 0.600083
vt 0.082969 0.600084
vt 0.082969 0.500000
vt 0.208333 0.500000
vt 0.208333 0.600084
vt 0.166667 0.600084
vt 0.166667 0.500000
vt 0.291667 0.500000
vt 0.291666 0.600083
vt 0.250000 0.600084
vt 0.250000 0.500000
vt 0.375000 0.500000
vt 0.375000 0.600084
vt 0.333333 0.600084
vt 0.333333 0.500000
vt 0.456030 0.500000
vt 0.456030 0.600084
vt 0.416667 0.600084
vt 0.416667 0.500000
vt 0.541667 0.500000
vt 0.541667 0.600084
vt 0.500000 0.600084
vt 0.500000 0.500000
vt 0.625000 0.500000
vt 0.625000 0.600084
vt 0.583333 0.600084
vt 0.583333 0.500000
vt 0.708333 0.500000
vt 0.708333 0.600084
vt 0.666667 0.600084
vt 0.666667 0.500000
vt 0.806945 0.500000
vt 0.806945 0.600084
vt 0.760382 0.600084
vt 0.760382 0.500000
vt 0.842150 0.500000
vt 0.842150 0.600084
vt 0.953801 0.497997
vt 0.954252 0.598344
vt 0.916043 0.599737
vt 0.915953 0.499601
vt 0.044445 0.683870
vt 0.044445 0.801169
vt 0.002773 0.804114
vt 0.002751 0.683110
vt 0.126812 0.683870
vt 0.126812 0.801169
vt 0.082969 0.801169
vt 0.082969 0.683870
vt 0.208333 0.683870
vt 0.208333 0.801169
vt 0.166667 0.801169
vt 0.166667 0.683870
vt 0.291667 0.683870
vt 0.291666 0.801169
vt 0.250000 0.801169
vt 0.250000 0.683870
vt 0.375000 0.683870
vt 0.375000 0.801169
vt 0.333333 0.801169
vt 0.333333 0.683870
vt 0.456030 0.683870
vt 0.456030 0.801169
vt 0.416667 0.801169
vt 0.416667 0.683870
vt 0.541667 0.683870
vt 0.541667 0.801169
vt 0.500000 0.801169
vt 0.500000 0.683870
vt 0.625000 0.683870
vt 0.625000 0.801169
vt 0.583334 0.801169
vt 0.583333 0.683870
vt 0.708333 0.683870
vt 0.708334 0.801169
vt 0.666667 0.801169
vt 0.666667 0.683870
vt 0.806945 0.683870
vt 0.806946 0.801169
vt 0.760383 0.801169
vt 0.760382 0.683870
vt 0.842150 0.683870
vt 0.842150 0.801169
vt 0.954278 0.683599
vt 0.954304 0.802948
vt 0.916054 0.801524
vt 0.916048 0.683816
vt 0.044445 0.876046
vt 0.002657 0.879281
vt 0.126812 0.876046
vt 0.082969 0.876045
vt 0.208334 0.876046
vt 0.166667 0.876046
vt 0.291666 0.876046
vt 0.250000 0.876046
vt 0.375000 0.876046
vt 0.333333 0.876046
vt 0.456030 0.876046
vt 0.416667 0.876046
vt 0.541667 0.876046
vt 0.500000 0.876046
vt 0.625000 0.876046
vt 0.583333 0.876046
vt 0.708333 0.876046
vt 0.666667 0.876046
vt 0.806946 0.876046
vt 0.760382 0.876046
vt 0.842150 0.876046
vt 0.954268 0.878055
vt 0.916046 0.876447
vt 0.042154 0.370000
vt 0.222289 0.316352
vt 0.132213 0.455063
vt 0.084167 0.412013
vt 0.333333 1.000000
vt 0.291667 1.000000
vt 0.208333 1.000000
vt 0.884868 1.000040
vt 0.915936 1.000000
vt 0.884826 1.000000
vt 0.166667 1.000000
vt 0.760382 1.000000
vt 1.002417 1.001759
vt 1.000595 1.000010
vt 0.953714 1.000001
vt 0.082969 1.000000
vt 0.044445 1.000000
vt 0.708333 1.000000
vt 0.625000 1.000000
vt 0.541667 1.000000
vt 0.456030 1.000000
vt 0.042154 0.130000
vt 0.086077 0.086077
vt 0.130000 0.042154
vt 0.485994 0.264951
vt 0.457846 0.130000
vt 0.473923 0.190000
vt 0.186683 0.026966
vt 0.250000 0.010000
vt 0.246966 0.485718
vt 0.186207 0.472491
vt 0.884862 0.599967
vt 0.884832 0.499866
vt 0.367771 0.451849
vt 0.443367 0.376301
vt 0.402558 0.422528
vt 0.884863 0.944169
vt 0.370000 0.042154
vt 0.413923 0.086077
vt 0.310000 0.026077
vt 0.010000 0.250000
vt 0.026077 0.310000
vt 0.884866 0.801288
vt 0.884863 0.876180
vt 0.026077 0.190000
vt 1.002313 0.806530
vt 1.002204 0.882268
vt 0.746966 0.485718
vt 0.815899 0.470682
vt 0.867771 0.451849
vt 0.902558 0.422528
vt 0.943367 0.376301
vt 0.968028 0.332002
vt 0.985994 0.264951
vt 0.973923 0.190000
vt 0.957846 0.130000
vt 0.913923 0.086077
vt 0.870000 0.042154
vt 0.810000 0.026077
vt 0.750000 0.010000
vt 0.686683 0.026966
vt 0.630000 0.042154
vt 0.510000 0.250000
vt 0.526077 0.310000
vt 0.542154 0.370000
vt 0.584167 0.412013
vt 0.632213 0.455063
vt 0.686207 0.472491
vt 0.003415 1.000000
vt 1.002237 0.949005
vt 1.002174 0.594578
vt 1.002301 0.682917
vt 1.000825 0.493967
vt 0.842150 1.000000
vt 0.884864 0.683852
vt 0.315899 0.470682
vt 0.468028 0.332002
s 1
usemtl GLASS
f 153/1/1 156/2/2 4/3/3 62/4/4
f 164/5/5 161/6/6 6/7/7 63/8/8
f 63/8/8 6/7/7 8/9/9 64/10/10
f 93/11/11 90/12/12 10/13/13 65/14/14
f 96/15/15 98/16/16 12/17/17 66/18/18
f 107/19/19 104/20/20 14/21/21 67/22/22
f 110/23/23 112/24/24 16/25/25 68/26/26
f 127/27/27 122/28/28 18/29/29 69/30/30
f 119/31/31 123/32/32 20/33/33 70/34/34
f 136/35/35 132/36/36 22/37/37 71/38/38
f 122/28/28 16/25/25 80/25/39 128/39/40
f 137/40/41 140/41/42 24/42/43 72/43/44
f 147/44/45 150/45/46 2/46/47 61/47/48
f 116/48/49 115/49/50 17/50/51
f 144/51/52 149/52/53 25/53/54 1/54/55
f 141/55/56 143/56/57 36/57/58 23/58/59
f 130/59/60 133/60/61 35/61/62 21/62/63
f 116/63/49 129/64/64 34/65/65 19/66/66
f 115/67/50 124/68/67 33/69/68 17/70/51
f 108/71/69 114/72/70 32/73/71 15/74/72
f 101/75/73 105/76/74 31/77/75 13/78/76
f 94/79/77 100/80/78 30/81/79 11/82/80
f 87/83/81 91/84/82 29/85/83 9/86/84
f 5/87/85 27/88/86 28/89/87 7/90/88
f 158/91/89 162/92/90 27/88/86 5/87/85
f 151/93/91 157/94/92 26/95/93 3/96/94
f 146/97/95 145/98/96 37/99/97 49/100/98
f 142/101/99 139/102/100 48/103/101 50/104/102
f 131/105/103 135/106/104 47/107/105 51/108/106
f 126/109/107 117/110/108 46/111/109 52/112/110
f 118/113/111 125/114/112 45/115/113 53/116/114
f 113/117/115 109/118/116 44/119/117 54/120/118
f 102/121/119 106/122/120 43/123/121 55/124/122
f 99/125/123 95/126/124 42/127/125 56/128/126
f 88/129/127 92/130/128 41/131/129 57/132/130
f 59/133/131 39/134/132 40/135/133 58/136/134
f 159/137/135 163/138/136 39/134/132 59/133/131
f 155/139/137 152/140/138 38/141/139 60/142/140
f 149/52/53 146/97/95 49/100/98 25/53/54
f 143/56/57 142/101/99 50/104/102 36/57/58
f 133/60/61 131/105/103 51/108/106 35/61/62
f 129/64/64 126/109/107 52/112/110 34/65/65
f 124/68/67 118/113/111 53/116/114 33/69/68
f 114/72/70 113/117/115 54/120/118 32/73/71
f 105/76/74 102/121/119 55/124/122 31/77/75
f 100/80/78 99/125/123 56/128/126 30/81/79
f 91/84/82 88/129/127 57/132/130 29/85/83
f 27/88/86 59/133/131 58/136/134 28/89/87
f 162/92/90 159/137/135 59/133/131 27/88/86
f 157/94/92 155/139/137 60/142/140 26/95/93
f 183/143/141 147/44/45 61/47/48 120/144/142
f 182/145/143 137/40/41 72/43/44 174/146/144
f 181/147/145 136/35/35 71/38/38 168/148/146
f 180/149/147 119/31/31 70/34/34 173/150/148
f 179/151/149 127/27/27 69/30/30 167/152/150
f 178/153/151 110/23/23 68/26/26 172/154/152
f 177/155/153 107/19/19 67/22/22 166/156/154
f 176/157/155 96/15/15 66/18/18 171/158/156
f 175/159/157 93/11/11 65/14/14 165/160/158
f 86/161/159 63/8/8 64/10/10 170/162/160
f 185/163/161 164/5/5 63/8/8 86/161/159
f 184/164/162 153/1/1 62/4/4 169/165/163
f 83/166/164 85/167/165 84/168/166 138/169/167
f 123/32/32 18/29/29 81/170/168 121/171/169
f 132/36/36 20/33/33 82/33/170 134/172/171
f 189/173/172 4/3/3 73/174/173 188/175/174
f 140/41/42 22/37/37 83/176/164 138/41/167
f 8/9/9 6/7/7 75/7/175 76/177/176
f 156/2/2 2/178/47 74/179/177 154/180/178
f 150/45/46 24/42/43 84/181/166 148/182/179
f 90/12/12 8/9/9 76/177/176 89/183/180
f 98/16/16 10/13/13 77/13/181 97/184/182
f 104/20/20 12/17/17 78/17/183 103/185/184
f 112/24/24 14/21/21 79/21/185 111/186/186
f 85/167/165 81/187/168 128/188/40 80/189/39
f 76/190/176 85/167/165 77/191/181 89/192/180
f 85/167/165 80/189/39 111/193/186 79/194/185
f 84/168/166 85/167/165 74/195/177 148/196/179
f 3/96/94 26/95/93 190/197/187 187/198/188
f 73/199/173 85/167/165 160/200/189 188/201/174
f 62/4/4 4/3/3 189/173/172 192/202/190
f 77/191/181 85/167/165 78/203/183 97/204/182
f 78/203/183 85/167/165 79/194/185 103/205/184
f 82/206/170 85/167/165 83/166/164 134/207/171
f 191/208/191 193/209/192 185/163/161 163/138/136
f 10/13/13 90/12/12 89/183/180 77/13/181
f 170/162/160 64/10/10 93/11/11 175/159/157
f 28/89/87 58/136/134 88/129/127 91/84/82
f 58/136/134 40/135/133 92/130/128 88/129/127
f 7/90/88 28/89/87 91/84/82 87/83/81
f 64/10/10 8/9/9 90/12/12 93/11/11
f 12/17/17 98/16/16 97/184/182 78/17/183
f 165/160/158 65/14/14 96/15/15 176/157/155
f 29/85/83 57/132/130 99/125/123 100/80/78
f 57/132/130 41/131/129 95/126/124 99/125/123
f 9/86/84 29/85/83 100/80/78 94/79/77
f 65/14/14 10/13/13 98/16/16 96/15/15
f 14/21/21 104/20/20 103/185/184 79/21/185
f 171/158/156 66/18/18 107/19/19 177/155/153
f 30/81/79 56/128/126 102/121/119 105/76/74
f 56/128/126 42/127/125 106/122/120 102/121/119
f 11/82/80 30/81/79 105/76/74 101/75/73
f 66/18/18 12/17/17 104/20/20 107/19/19
f 16/25/25 112/24/24 111/186/186 80/25/39
f 166/156/154 67/22/22 110/23/23 178/153/151
f 31/77/75 55/124/122 113/117/115 114/72/70
f 55/124/122 43/123/121 109/118/116 113/117/115
f 13/78/76 31/77/75 114/72/70 108/71/69
f 67/22/22 14/21/21 112/24/24 110/23/23
f 121/210/169 81/187/168 85/167/165 82/206/170
f 37/211/97 120/212/142 184/164/162 152/140/138
f 20/33/33 123/32/32 121/171/169 82/33/170
f 172/154/152 68/26/26 127/27/27 179/151/149
f 167/152/150 69/30/30 119/31/31 180/149/147
f 32/73/71 54/120/118 118/113/111 124/68/67
f 33/69/68 53/116/114 126/109/107 129/64/64
f 54/120/118 44/119/117 125/114/112 118/113/111
f 53/116/114 45/115/113 117/110/108 126/109/107
f 15/74/72 32/73/71 124/68/67 115/67/50
f 17/70/51 33/69/68 129/64/64 116/63/49
f 1/213/55 151/214/91 3/215/94 187/216/188 158/217/89 5/218/85 7/219/88 87/220/81 9/221/84 94/222/77 11/223/80 101/224/73 13/225/76 108/226/69 15/227/72 115/49/50 116/48/49 19/228/66 130/229/60 21/230/63 141/231/56 23/232/59 144/233/52
f 18/29/29 122/28/28 128/39/40 81/170/168
f 69/30/30 18/29/29 123/32/32 119/31/31
f 68/26/26 16/25/25 122/28/28 127/27/27
f 22/37/37 132/36/36 134/172/171 83/176/164
f 173/150/148 70/34/34 136/35/35 181/147/145
f 34/65/65 52/112/110 131/105/103 133/60/61
f 52/112/110 46/111/109 135/106/104 131/105/103
f 19/66/66 34/65/65 133/60/61 130/59/60
f 70/34/34 20/33/33 132/36/36 136/35/35
f 24/42/43 140/41/42 138/41/167 84/181/166
f 168/148/146 71/38/38 137/40/41 182/145/143
f 35/61/62 51/108/106 142/101/99 143/56/57
f 51/108/106 47/107/105 139/102/100 142/101/99
f 21/62/63 35/61/62 143/56/57 141/55/56
f 71/38/38 22/37/37 140/41/42 137/40/41
f 2/46/47 150/45/46 148/182/179 74/234/177
f 174/146/144 72/43/44 147/44/45 183/143/141
f 36/57/58 50/104/102 146/97/95 149/52/53
f 50/104/102 48/103/101 145/98/96 146/97/95
f 23/58/59 36/57/58 149/52/53 144/51/52
f 72/43/44 24/42/43 150/45/46 147/44/45
f 4/3/3 156/2/2 154/180/178 73/174/173
f 120/212/142 61/235/48 153/1/1 184/164/162
f 25/236/54 49/237/98 155/139/137 157/94/92
f 49/237/98 37/211/97 152/140/138 155/139/137
f 1/238/55 25/236/54 157/94/92 151/93/91
f 61/235/48 2/178/47 156/2/2 153/1/1
f 6/7/7 161/6/6 160/239/189 75/7/175
f 193/209/192 192/202/190 164/5/5 185/163/161
f 190/197/187 186/240/193 159/137/135 162/92/90
f 186/240/193 191/208/191 163/138/136 159/137/135
f 187/198/188 190/197/187 162/92/90 158/91/89
f 192/202/190 189/173/172 161/6/6 164/5/5
f 60/142/140 38/141/139 191/208/191 186/240/193
f 48/103/101 174/146/144 183/143/141 145/98/96
f 47/107/105 168/148/146 182/145/143 139/102/100
f 46/111/109 173/150/148 181/147/145 135/106/104
f 45/115/113 167/152/150 180/149/147 117/110/108
f 44/119/117 172/154/152 179/151/149 125/114/112
f 43/123/121 166/156/154 178/153/151 109/118/116
f 42/127/125 171/158/156 177/155/153 106/122/120
f 41/131/129 165/160/158 176/157/155 95/126/124
f 40/135/133 170/162/160 175/159/157 92/130/128
f 152/140/138 184/164/162 169/165/163 38/141/139
f 163/138/136 185/163/161 86/161/159 39/134/132
f 39/134/132 86/161/159 170/162/160 40/135/133
f 92/130/128 175/159/157 165/160/158 41/131/129
f 95/126/124 176/157/155 171/158/156 42/127/125
f 106/122/120 177/155/153 166/156/154 43/123/121
f 109/118/116 178/153/151 172/154/152 44/119/117
f 125/114/112 179/151/149 167/152/150 45/115/113
f 117/110/108 180/149/147 173/150/148 46/111/109
f 135/106/104 181/147/145 168/148/146 47/107/105
f 139/102/100 182/145/143 174/146/144 48/103/101
f 145/98/96 183/143/141 120/144/142 37/99/97
f 74/195/177 85/167/165 73/199/173 154/241/178
f 26/95/93 60/142/140 186/240/193 190/197/187
f 169/165/163 62/4/4 192/202/190 193/209/192
f 38/141/139 169/165/163 193/209/192 191/208/191
f 161/6/6 189/173/172 188/175/174 160/239/189
f 160/200/189 85/167/165 76/190/176 75/242/175
